<?xml version="1.0" encoding="UTF-8"?>
<svg xmlns="http://www.w3.org/2000/svg" xmlns:xlink="http://www.w3.org/1999/xlink" width="472px" height="217px" viewBox="0 0 472 217" version="1.1">
<g id="surface1">
<path style=" stroke:none;fill-rule:nonzero;fill:rgb(100%,60%,0%);fill-opacity:1;" d="M 37.761719 0 L 906.238281 0 C 927.09375 0 944 7.773438 944 17.359375 L 944 416.640625 C 944 426.226562 927.09375 434 906.238281 434 L 37.761719 434 C 16.90625 434 0 426.226562 0 416.640625 L 0 17.359375 C 0 7.773438 16.90625 0 37.761719 0 Z M 37.761719 0 "/>
<path style=" stroke:none;fill-rule:nonzero;fill:rgb(100%,69.411765%,23.137255%);fill-opacity:1;" d="M 37.761719 0 L 434.238281 0 C 455.09375 0 472 7.773438 472 17.359375 L 472 199.640625 C 472 209.226562 455.09375 217 434.238281 217 L 37.761719 217 C 16.90625 217 0 209.226562 0 199.640625 L 0 17.359375 C 0 7.773438 16.90625 0 37.761719 0 Z M 37.761719 0 "/>
<path style=" stroke:none;fill-rule:nonzero;fill:rgb(100%,60%,0%);fill-opacity:1;" d="M 645.695312 79.855469 C 645.695312 123.960938 567.929688 159.710938 472 159.710938 C 376.070312 159.710938 298.304688 123.960938 298.304688 79.855469 C 298.304688 35.753906 376.070312 0 472 0 C 567.929688 0 645.695312 35.753906 645.695312 79.855469 Z M 645.695312 79.855469 "/>
<path style=" stroke:none;fill-rule:nonzero;fill:rgb(100%,60%,0%);fill-opacity:1;" d="M 347.390625 217 C 347.390625 261.101562 269.625 296.855469 173.695312 296.855469 C 77.765625 296.855469 0 261.101562 0 217 C 0 172.898438 77.765625 137.144531 173.695312 137.144531 C 269.625 137.144531 347.390625 172.898438 347.390625 217 Z M 347.390625 217 "/>
<path style=" stroke:none;fill-rule:nonzero;fill:rgb(100%,60%,0%);fill-opacity:1;" d="M 434.238281 119.785156 C 434.238281 163.886719 356.472656 199.640625 260.542969 199.640625 C 164.613281 199.640625 86.847656 163.886719 86.847656 119.785156 C 86.847656 75.679688 164.613281 39.929688 260.542969 39.929688 C 356.472656 39.929688 434.238281 75.679688 434.238281 119.785156 Z M 434.238281 119.785156 "/>
<path style=" stroke:none;fill-rule:nonzero;fill:rgb(0%,0%,0%);fill-opacity:1;" d="M 595.53125 79.789062 C 595.53125 48.425781 540.222656 22.996094 471.867188 22.996094 C 403.570312 22.996094 348.242188 48.425781 348.242188 79.789062 C 300.097656 57.613281 221.792969 57.613281 173.628906 79.789062 C 125.304688 102.011719 125.304688 137.980469 173.628906 160.183594 C 105.339844 160.183594 49.9375 185.613281 49.9375 216.972656 C 49.9375 248.351562 105.351562 273.820312 173.628906 273.820312 C 125.304688 295.996094 125.304688 331.953125 173.628906 354.175781 C 221.792969 376.324219 300.097656 376.324219 348.242188 354.175781 C 348.242188 385.542969 403.558594 410.953125 471.867188 410.953125 C 540.214844 410.953125 595.53125 385.542969 595.53125 354.175781 C 643.847656 376.324219 722.179688 376.324219 770.292969 354.175781 C 818.449219 331.953125 818.449219 295.976562 770.292969 273.820312 C 838.414062 273.820312 893.777344 248.347656 893.777344 216.972656 C 893.777344 185.609375 838.414062 160.183594 770.292969 160.183594 C 818.449219 137.96875 818.449219 102.003906 770.292969 79.789062 C 722.179688 57.613281 643.863281 57.613281 595.53125 79.789062 Z M 595.53125 79.789062 "/>
<path style=" stroke:none;fill-rule:nonzero;fill:rgb(100%,100%,100%);fill-opacity:1;" d="M 519.226562 101.578125 L 519.226562 164.457031 L 616.054688 119.957031 C 616.054688 112.09375 622.578125 104.253906 635.558594 98.234375 C 661.800781 86.210938 704.234375 86.210938 730.183594 98.234375 C 756.34375 110.242188 756.34375 129.722656 730.183594 141.753906 C 717.183594 147.71875 700.023438 150.746094 682.84375 150.746094 L 586.234375 195.222656 L 723.007812 195.222656 C 735.1875 189.667969 751.839844 186.210938 770.3125 186.210938 C 807.128906 186.210938 837.128906 200.007812 837.128906 216.96875 C 837.128906 233.921875 807.128906 247.730469 770.3125 247.730469 C 751.839844 247.730469 735.1875 244.269531 723.007812 238.738281 L 586.222656 238.738281 L 682.785156 283.199219 C 700.003906 283.199219 717.167969 286.210938 730.128906 292.25 C 756.3125 304.226562 756.3125 323.714844 730.128906 335.695312 C 704.167969 347.734375 661.792969 347.734375 635.492188 335.695312 C 622.539062 329.738281 616.007812 321.839844 616.007812 313.980469 L 519.199219 269.488281 L 519.199219 332.414062 C 531.199219 337.953125 538.871094 345.667969 538.871094 354.171875 C 538.871094 371.121094 508.882812 384.882812 471.867188 384.882812 C 434.871094 384.882812 404.902344 371.140625 404.902344 354.171875 C 404.902344 345.667969 412.554688 337.972656 424.546875 332.414062 L 424.546875 269.488281 L 327.925781 313.980469 C 327.925781 321.847656 321.273438 329.722656 308.253906 335.695312 C 282.113281 347.726562 239.804688 347.726562 213.628906 335.695312 C 187.429688 323.699219 187.429688 304.214844 213.628906 292.242188 C 226.625 286.210938 243.96875 283.1875 260.941406 283.1875 L 357.765625 238.738281 L 221.027344 238.738281 C 208.859375 244.277344 192.027344 247.730469 173.6875 247.730469 C 136.710938 247.730469 106.699219 233.929688 106.699219 216.96875 C 106.699219 200.007812 136.691406 186.210938 173.6875 186.210938 C 192 186.210938 208.851562 189.667969 221.027344 195.222656 L 357.792969 195.222656 L 260.976562 150.753906 C 244.015625 150.753906 226.691406 147.730469 213.664062 141.765625 C 187.46875 129.734375 187.46875 110.257812 213.664062 98.25 C 239.84375 86.222656 282.160156 86.222656 308.320312 98.25 C 321.300781 104.265625 327.984375 112.113281 327.984375 119.96875 L 424.601562 164.464844 L 424.601562 101.585938 C 412.613281 96 404.949219 88.335938 404.949219 79.785156 C 404.949219 62.824219 434.917969 49.0625 471.933594 49.0625 C 508.929688 49.0625 538.929688 62.8125 538.929688 79.785156 C 538.910156 88.34375 531.226562 95.996094 519.226562 101.578125 Z M 519.226562 101.578125 "/>
</g>
</svg>
